<?xml version="1.0" encoding="UTF-8"?>
<svg id="Camada_1" data-name="Camada 1" xmlns="http://www.w3.org/2000/svg" viewBox="0 0 800 800">
  <defs>
    <style>
      .cls-1 {
        fill: #070c1d;
      }

      .cls-1, .cls-2 {
        stroke-width: 0px;
      }

      .cls-2 {
        fill: #fff;
      }
    </style>
  </defs>
  <rect class="cls-1" x="0" y="0" width="800" height="800" rx="400" ry="400"/>
  <g>
    <path class="cls-2" d="M447.46,226.38h0c-26.05,0-47.21,21.16-47.21,47.21h0c0-26.05-21.16-47.21-47.21-47.21h0c26.05,0,47.21-21.16,47.21-47.21h0c0,26.05,21.16,47.21,47.21,47.21Z"/>
    <path class="cls-2" d="M494.67,478.26h0c-52.17,0-94.42,42.31-94.42,94.42h0c0-52.17-42.31-94.42-94.42-94.42h0c52.17,0,94.42-42.31,94.42-94.42h0c0,52.17,42.31,94.42,94.42,94.42Z"/>
    <g>
      <path class="cls-2" d="M713.9,415.91c0,10.61-.5,21.09-1.57,31.39-2.13,21.66-6.47,42.69-12.87,62.78-.94,3.14-1.95,6.22-3.08,9.29-1.32,3.96-2.83,7.91-4.33,11.8h0c-1.57,3.96-3.14,7.72-4.83,11.49-1.51,3.45-3.08,6.84-4.71,10.17-2.07,4.21-4.21,8.35-6.4,12.49-1.38,2.51-2.83,5.02-4.27,7.53-2.76,4.83-5.65,9.54-8.66,14.13-3.83,5.9-7.85,11.68-12.12,17.26-8.29,11.05-17.33,21.53-27,31.39h-46.52c11.8-9.54,22.85-20.09,33.02-31.39,3.14-3.52,6.22-7.09,9.17-10.8,5.4-6.59,10.42-13.5,15.19-20.59,1.13-1.7,2.26-3.39,3.33-5.09,4.52-7.09,8.73-14.38,12.62-21.85,3.89-7.47,7.47-15.19,10.67-23.04,1.57-3.83,3.08-7.72,4.46-11.61.13-.38.25-.75.38-1.19,1.32-3.52,2.51-7.09,3.64-10.74,5.15-16.76,8.79-34.15,10.74-52.04,1.19-10.3,1.76-20.78,1.76-31.39s-.56-21.09-1.76-31.39c-2.39-21.78-7.28-42.82-14.38-62.78-7.85-22.35-18.46-43.44-31.45-62.78-4.77-7.09-9.79-14-15.19-20.59-3.77-4.71-7.72-9.29-11.87-13.75-5.65-6.15-11.61-12.05-17.77-17.7l-25.36,19.52-7.78,5.96-17.64,13.56-16.89,13-28.25,21.72-53.36,41.06-2.2,1.7-7.22,5.52-1.88,1.51-9.1,6.97-20.03,15.44-20.4-15.76-9.04-6.97-2.32-1.76-7.41-5.71-1.19-.94-54.18-41.75-27.31-21.03-17.33-13.37-18.14-14-7.28-5.59-25.36-19.52c-6.34,5.78-12.49,11.8-18.27,18.14-4.14,4.46-8.1,9.04-11.87,13.75-5.4,6.59-10.42,13.5-15.19,20.59-13,19.34-23.61,40.43-31.45,62.78-7.09,19.96-11.99,41-14.38,62.78-1.19,10.3-1.76,20.78-1.76,31.39s.57,21.09,1.76,31.39c1.95,17.77,5.59,35.09,10.67,51.73,1.13,3.7,2.39,7.41,3.7,11.05.13.44.25.82.38,1.19,1.38,3.89,2.89,7.78,4.46,11.61,3.2,7.91,6.84,15.63,10.74,23.17,3.83,7.41,8.04,14.69,12.56,21.72,1.07,1.7,2.2,3.39,3.33,5.09,4.77,7.09,9.79,14,15.19,20.59,2.95,3.7,6.03,7.28,9.17,10.8,10.17,11.3,21.22,21.85,33.02,31.39h-46.52c-9.67-9.86-18.71-20.34-27-31.39-4.27-5.59-8.29-11.36-12.12-17.26-3.01-4.58-5.9-9.29-8.66-14.13-1.44-2.45-2.83-4.9-4.21-7.41-2.26-4.14-4.39-8.35-6.47-12.62-1.63-3.33-3.2-6.72-4.71-10.17-1.7-3.77-3.26-7.53-4.83-11.43h0c-1.57-4.02-3.08-8.04-4.39-12.12-1.13-3.01-2.13-5.96-3.01-9.04-6.4-20.09-10.74-41.12-12.87-62.78-1.07-10.3-1.57-20.78-1.57-31.39s.5-21.09,1.57-31.39c2.13-21.66,6.47-42.69,12.87-62.78,4.58-14.75,10.3-29.07,16.95-42.75,3.33-6.84,6.84-13.5,10.67-20.03,11.11-19.27,24.23-37.17,39.05-53.55,2.83-3.14,5.78-6.22,8.73-9.23,1.38-1.51,2.83-2.95,4.33-4.33,1.63-1.63,3.26-3.2,4.96-4.77,5.96-5.65,12.18-11.05,18.65-16.2,2.76-2.2,5.59-4.39,8.41-6.53l187.71,143.52,187.71-143.52c2.83,2.13,5.65,4.33,8.41,6.53,6.65,5.27,13,10.86,19.15,16.64,1.51,1.44,3.01,2.89,4.46,4.33,1.51,1.38,2.95,2.83,4.33,4.33,2.95,3.01,5.9,6.09,8.73,9.23,14.82,16.39,27.94,34.28,39.05,53.55,3.83,6.53,7.35,13.18,10.67,20.03,6.65,13.69,12.37,28,16.95,42.75,6.4,20.09,10.74,41.12,12.87,62.78,1.07,10.3,1.57,20.78,1.57,31.39Z"/>
      <path class="cls-2" d="M651.12,415.91c0,10.61-.69,21.09-1.95,31.39-1.32,10.74-3.39,21.28-6.03,31.58-1.07,4.14-2.26,8.22-3.52,12.24s-2.57,7.97-4.02,11.87c-.88,2.39-1.82,4.77-2.83,7.09-2.2,5.52-4.58,10.92-7.28,16.26-1.76,3.77-3.7,7.53-5.78,11.17-2.07,3.77-4.27,7.41-6.47,11.05-5.34,8.48-11.05,16.57-17.26,24.3-9.04,11.36-19.09,21.85-30.01,31.39-2.95,2.64-5.96,5.15-9.04,7.66-11.05,8.85-22.85,16.83-35.35,23.73h-243.21c-12.49-6.91-24.3-14.88-35.35-23.73-3.08-2.51-6.09-5.02-9.04-7.66-10.92-9.54-20.97-20.03-30.01-31.39-6.22-7.72-11.93-15.82-17.26-24.3-2.2-3.64-4.39-7.28-6.47-11.05-2.01-3.64-3.96-7.28-5.71-10.99-2.7-5.4-5.15-10.86-7.35-16.45-1-2.32-1.95-4.71-2.83-7.09-1.44-3.89-2.76-7.85-4.02-11.87-1.32-4.14-2.51-8.29-3.58-12.56-2.64-10.17-4.65-20.59-5.96-31.26-1.26-10.3-1.95-20.78-1.95-31.39s.69-21.09,1.95-31.39c2.76-21.97,8.29-43,16.39-62.78,3.77-9.48,8.16-18.58,13.06-27.43,6.91-12.49,14.88-24.3,23.73-35.35,4.21-5.21,8.54-10.23,13.18-15.07l19.59,15.07,5.34,4.14c-16.57,17.08-30.39,36.85-40.68,58.64-9.29,19.52-15.76,40.62-18.96,62.78-1.44,10.23-2.2,20.72-2.2,31.39s.75,21.16,2.2,31.39c.5,3.45,1.13,6.91,1.76,10.3.82,4.39,1.82,8.73,2.89,13.06,1.07,4.08,2.26,8.1,3.52,12.12,2.64,8.29,5.78,16.39,9.35,24.23.5,1.07.94,2.07,1.44,3.08,3.14,6.59,6.59,13,10.36,19.21,8.85,14.69,19.34,28.25,31.26,40.43l3.14,3.14c12.24,11.99,25.87,22.54,40.62,31.39h226.39c14.75-8.85,28.38-19.4,40.62-31.39l3.14-3.14c11.93-12.18,22.41-25.74,31.26-40.43,3.77-6.22,7.22-12.62,10.36-19.21.5-1.07,1.07-2.2,1.57-3.33,3.52-7.72,6.59-15.76,9.23-23.98,1.26-4.02,2.45-8.04,3.52-12.12,1-4.14,1.95-8.35,2.76-12.62.75-3.52,1.32-7.09,1.88-10.74,1.44-10.23,2.2-20.72,2.2-31.39s-.75-21.16-2.2-31.39c-3.2-22.16-9.67-43.26-18.96-62.78-10.3-21.78-24.11-41.56-40.68-58.64l5.34-4.14,19.59-15.07c4.65,4.83,8.98,9.86,13.18,15.07,8.85,11.05,16.83,22.85,23.73,35.35,4.9,8.85,9.29,17.96,13.06,27.43,8.1,19.78,13.62,40.81,16.39,62.78,1.26,10.3,1.95,20.78,1.95,31.39h0Z"/>
    </g>
  </g>
</svg>